<?xml version="1.0" encoding="utf-8"?>
<!-- Generator: Adobe Illustrator 15.0.0, SVG Export Plug-In . SVG Version: 6.00 Build 0)  -->
<!DOCTYPE svg PUBLIC "-//W3C//DTD SVG 1.1//EN" "http://www.w3.org/Graphics/SVG/1.1/DTD/svg11.dtd">
<svg version="1.1" id="图层_1" xmlns="http://www.w3.org/2000/svg" xmlns:xlink="http://www.w3.org/1999/xlink" x="0px" y="0px"
	 width="22px" height="22px" viewBox="0.5 16.5 22 22" enable-background="new 0.5 16.5 22 22" xml:space="preserve">
<g>
	<g>
		<g>
			<path fill="#065493" d="M11.501,38.5C5.436,38.5,0.5,33.565,0.5,27.499C0.5,21.435,5.436,16.5,11.501,16.5
				c6.066,0,10.999,4.935,10.999,10.999C22.5,33.564,17.567,38.5,11.501,38.5 M11.501,26.46c-0.573,0-1.041,0.465-1.041,1.039
				c0,0.575,0.466,1.04,1.041,1.04c0.574,0,1.039-0.465,1.039-1.04C12.54,26.926,12.074,26.46,11.501,26.46"/>
			<path fill="#1580C3" d="M11.501,16.878c-5.866,0-10.622,4.756-10.622,10.621c0,5.866,4.756,10.622,10.622,10.622
				s10.621-4.756,10.621-10.622C22.122,21.634,17.367,16.878,11.501,16.878 M11.501,37.812c-5.686,0-10.312-4.626-10.312-10.313
				c0-5.686,4.626-10.312,10.312-10.312s10.311,4.626,10.311,10.312C21.812,33.186,17.187,37.812,11.501,37.812"/>
		</g>
		<g>
			<g>
				<defs>
					<path id="SVGID_1_" d="M8.404,27.499c0-1.708,1.389-3.098,3.097-3.098s3.098,1.389,3.098,3.098c0,1.706-1.389,3.1-3.098,3.1
						C9.793,30.599,8.404,29.205,8.404,27.499 M2.65,27.499c0,4.881,3.971,8.852,8.851,8.852c4.881,0,8.852-3.971,8.852-8.852
						c0-4.88-3.971-8.85-8.852-8.85C6.621,18.649,2.65,22.619,2.65,27.499"/>
				</defs>
				<clipPath id="SVGID_2_">
					<use xlink:href="#SVGID_1_"  overflow="visible"/>
				</clipPath>
				<rect x="2.65" y="18.649" clip-path="url(#SVGID_2_)" fill="#2EA7E0" width="17.702" height="17.701"/>
			</g>
			<g opacity="0.6">
				<path fill="#FFFFFF" d="M14.592,27.705l5.432,0.357l0.312-0.012c0.076-1.266-0.121-2.53-0.567-3.702l-5.374,2.048
					C14.552,26.81,14.62,27.258,14.592,27.705"/>
				<path fill="#FFFFFF" d="M8.41,27.295l-5.433-0.359l-0.311,0.013c-0.076,1.267,0.121,2.529,0.566,3.701l5.374-2.048
					C8.451,28.188,8.381,27.742,8.41,27.295"/>
			</g>
			<g opacity="0.6">
				<path fill="#FFFFFF" d="M14.178,25.94l4.704-2.74l0.251-0.183c-0.645-1.094-1.515-2.03-2.541-2.754l-3.308,4.705
					C13.645,25.224,13.951,25.554,14.178,25.94"/>
				<path fill="#FFFFFF" d="M8.824,29.059l-4.703,2.739l-0.252,0.184c0.645,1.093,1.514,2.03,2.54,2.753l3.31-4.703
					C9.358,29.776,9.05,29.445,8.824,29.059"/>
			</g>
			<g>
				<path fill="#F6F5F5" d="M11.501,17.188c-5.686,0-10.312,4.626-10.312,10.312c0,5.688,4.626,10.313,10.312,10.313
					s10.311-4.625,10.311-10.313C21.812,21.813,17.187,17.188,11.501,17.188 M11.501,36.351c-4.88,0-8.851-3.971-8.851-8.852
					c0-4.88,3.971-8.85,8.851-8.85c4.881,0,8.852,3.97,8.852,8.85C20.353,32.38,16.382,36.351,11.501,36.351"/>
				<path fill="#1580C3" d="M11.501,24.402c-1.71,0-3.097,1.388-3.097,3.097s1.387,3.098,3.097,3.098
					c1.708,0,3.098-1.389,3.098-3.098S13.209,24.402,11.501,24.402 M11.501,30.276c-1.53,0-2.777-1.247-2.777-2.777
					c0-1.531,1.247-2.776,2.777-2.776c1.531,0,2.777,1.246,2.777,2.776S13.032,30.276,11.501,30.276"/>
				<path fill="#F6F5F5" d="M11.501,24.723c-1.53,0-2.777,1.246-2.777,2.776c0,1.531,1.247,2.777,2.777,2.777
					c1.531,0,2.777-1.246,2.777-2.777C14.278,25.969,13.032,24.723,11.501,24.723 M11.501,28.919c-0.783,0-1.421-0.638-1.421-1.42
					c0-0.781,0.638-1.418,1.421-1.418c0.781,0,1.419,0.637,1.419,1.418C12.92,28.281,12.282,28.919,11.501,28.919"/>
			</g>
		</g>
	</g>
</g>
</svg>
