<?xml version="1.0" encoding="utf-8"?>
<!-- Generator: Adobe Illustrator 15.0.0, SVG Export Plug-In . SVG Version: 6.00 Build 0)  -->
<!DOCTYPE svg PUBLIC "-//W3C//DTD SVG 1.1//EN" "http://www.w3.org/Graphics/SVG/1.1/DTD/svg11.dtd">
<svg version="1.1" id="图层_1" xmlns="http://www.w3.org/2000/svg" xmlns:xlink="http://www.w3.org/1999/xlink" x="0px" y="0px"
	 width="16px" height="16px" viewBox="0 0 16 16" enable-background="new 0 0 16 16" xml:space="preserve">
<g>
	<g>
		<path fill="#065493" d="M7.998,15.946c-4.385,0-7.953-3.568-7.953-7.953c0-4.385,3.568-7.953,7.953-7.953
			c4.384,0,7.953,3.567,7.953,7.953C15.95,12.378,12.382,15.946,7.998,15.946 M7.998,7.247c-0.413,0-0.746,0.334-0.746,0.747
			s0.333,0.745,0.746,0.745c0.414,0,0.745-0.333,0.745-0.746S8.409,7.247,7.998,7.247"/>
		<path fill="#1580C3" d="M7.998,0.537c-4.12,0-7.456,3.337-7.456,7.457c0,4.12,3.337,7.454,7.456,7.454s7.454-3.335,7.454-7.455
			C15.451,3.874,12.116,0.537,7.998,0.537 M7.998,15.232c-3.992,0-7.239-3.25-7.239-7.24c0-3.991,3.246-7.239,7.239-7.239
			c3.991,0,7.24,3.248,7.24,7.239C15.237,11.984,11.988,15.232,7.998,15.232"/>
	</g>
	<g>
		<defs>
			<path id="SVGID_1_" d="M5.823,7.994c0-1.198,0.977-2.174,2.175-2.174c1.199,0,2.173,0.975,2.173,2.174
				c0,1.201-0.975,2.174-2.173,2.174C6.798,10.168,5.823,9.193,5.823,7.994 M1.785,7.994c0,3.425,2.788,6.213,6.213,6.213
				s6.213-2.788,6.213-6.213c0-3.425-2.788-6.213-6.213-6.213C4.573,1.78,1.785,4.569,1.785,7.994"/>
		</defs>
		<clipPath id="SVGID_2_">
			<use xlink:href="#SVGID_1_"  overflow="visible"/>
		</clipPath>
		<rect x="1.785" y="1.78" clip-path="url(#SVGID_2_)" fill="#2EA7E0" width="12.426" height="12.427"/>
	</g>
	<g opacity="0.6">
		<path fill="#FFFFFF" d="M10.167,8.137l3.813,0.252l0.216-0.008c0.058-0.89-0.081-1.776-0.396-2.6l-3.771,1.44
			C10.137,7.51,10.185,7.822,10.167,8.137"/>
		<path fill="#FFFFFF" d="M5.828,7.85L2.015,7.598L1.796,7.605c-0.054,0.89,0.085,1.776,0.398,2.6l3.772-1.438
			C5.855,8.476,5.808,8.165,5.828,7.85"/>
	</g>
	<g opacity="0.6">
		<path fill="#FFFFFF" d="M9.876,6.897l3.3-1.924l0.178-0.128C12.9,4.078,12.29,3.418,11.571,2.913L9.248,6.216
			C9.502,6.396,9.716,6.627,9.876,6.897"/>
		<path fill="#FFFFFF" d="M6.118,9.088l-3.301,1.924L2.641,11.14c0.451,0.769,1.063,1.425,1.782,1.932l2.324-3.301
			C6.493,9.592,6.276,9.359,6.118,9.088"/>
	</g>
	<path fill="#F6F5F5" d="M7.998,0.787c-3.977,0-7.208,3.232-7.208,7.207c0,3.974,3.232,7.207,7.208,7.207
		c3.976,0,7.208-3.233,7.208-7.207C15.205,4.019,11.972,0.787,7.998,0.787 M7.998,14.18c-3.412,0-6.188-2.776-6.188-6.186
		c0-3.412,2.775-6.186,6.188-6.186c3.411,0,6.187,2.774,6.187,6.186C14.185,11.403,11.408,14.18,7.998,14.18"/>
	<path fill="#1580C3" d="M7.998,5.756c-1.233,0-2.236,1.004-2.236,2.237c0,1.234,1.003,2.235,2.236,2.235
		c1.233,0,2.235-1.003,2.235-2.236C10.232,6.759,9.23,5.756,7.998,5.756 M7.998,10.001c-1.105,0-2.006-0.901-2.006-2.007
		c0-1.105,0.901-2.006,2.006-2.006c1.104,0,2.006,0.902,2.006,2.006S9.102,10.001,7.998,10.001"/>
	<path fill="#F6F5F5" d="M7.998,6.005c-1.097,0-1.988,0.891-1.988,1.988c0,1.098,0.893,1.987,1.988,1.987
		c1.094,0,1.988-0.89,1.988-1.988C9.985,6.895,9.092,6.005,7.998,6.005 M7.998,8.988c-0.55,0-0.994-0.448-0.994-0.995
		c0-0.549,0.445-0.995,0.995-0.995c0.547,0,0.995,0.445,0.995,0.995C8.991,8.54,8.546,8.988,7.998,8.988"/>
</g>
<g>
	<g>
		<g>
			<defs>
				<path id="SVGID_3_" d="M12.573,12.84c0.011,0.115,0.014,0.194,0.014,0.194S12.578,12.964,12.573,12.84 M12.682,11.813
					c-0.105,0.449-0.115,0.817-0.109,1.028c-0.027-0.277-0.112-0.78-0.394-1.045c0,0,0.056,0.586-0.174,1.037
					c-0.23,0.45-0.589,1.349,0.26,2.62c0,0-0.067-0.021-0.179-0.063c0.361,0.235,0.788,0.375,1.246,0.375
					c0.421,0,0.815-0.116,1.155-0.317c-0.182,0.094-0.378,0.154-0.584,0.162c0,0,0.833-0.706,0.604-1.641
					c-0.23-0.935-0.035-1.137-0.035-1.137s-0.509,0.344-0.528,0.891c0,0-0.989-0.874-0.389-2.879
					C13.556,10.843,12.85,11.102,12.682,11.813"/>
			</defs>
			<clipPath id="SVGID_4_">
				<use xlink:href="#SVGID_3_"  overflow="visible"/>
			</clipPath>
			
				<linearGradient id="SVGID_5_" gradientUnits="userSpaceOnUse" x1="-51.9521" y1="33.3584" x2="-51.3206" y2="33.3584" gradientTransform="matrix(0 -7.9065 7.9065 0 -250.6779 -394.9979)">
				<stop  offset="0" style="stop-color:#EE6F0B"/>
				<stop  offset="1" style="stop-color:#FFEB3B"/>
			</linearGradient>
			<rect x="11.417" y="10.843" clip-path="url(#SVGID_4_)" fill="url(#SVGID_5_)" width="3.32" height="4.921"/>
		</g>
	</g>
	<g>
		<g>
			<defs>
				<path id="SVGID_6_" d="M12.011,10.687c0.089-1.112-0.589-1.955-0.589-1.955c0.108,1.886-1.586,3.545-1.095,4.938
					c0.385,1.093,1.358,1.565,1.76,1.719c0.11,0.042,0.179,0.063,0.179,0.063c-0.849-1.271-0.49-2.17-0.261-2.62
					c0.231-0.451,0.176-1.037,0.176-1.037c0.281,0.265,0.366,0.77,0.393,1.043c-0.007-0.209,0.005-0.577,0.11-1.027
					c0.166-0.71,0.872-0.967,0.872-0.967c-0.599,2.004,0.39,2.877,0.39,2.877c0.021-0.547,0.528-0.891,0.528-0.891
					s-0.195,0.203,0.035,1.137c0.229,0.935-0.604,1.641-0.604,1.641c0.204-0.009,0.4-0.067,0.585-0.162
					c0.726-0.425,1.217-1.242,1.217-2.179c0-0.174-0.019-0.342-0.047-0.503c-0.023-0.074-0.052-0.147-0.083-0.213
					c-0.068-0.145-0.122-0.313-0.166-0.49c-0.215-0.906-0.126-2.097-0.126-2.097c-0.375,0.413-0.526,0.874-0.578,1.268
					c-0.067,0.513,0.033,0.906,0.033,0.906s-0.248-0.26-0.31-1.088c-0.028-0.378-0.017-0.877,0.078-1.527
					c0.299-2.063-1.341-3.596-1.341-3.596C13.855,8.892,12.011,10.687,12.011,10.687"/>
			</defs>
			<clipPath id="SVGID_7_">
				<use xlink:href="#SVGID_6_"  overflow="visible"/>
			</clipPath>
			
				<linearGradient id="SVGID_8_" gradientUnits="userSpaceOnUse" x1="-25.4697" y1="16.6758" x2="-24.8382" y2="16.6758" gradientTransform="matrix(0 -15.8134 15.8134 0 -250.9373 -386.8517)">
				<stop  offset="0" style="stop-color:#F44336"/>
				<stop  offset="1" style="stop-color:#F5A816"/>
			</linearGradient>
			<rect x="9.836" y="5.929" clip-path="url(#SVGID_7_)" fill="url(#SVGID_8_)" width="5.871" height="9.68"/>
		</g>
	</g>
	<g>
		<path fill="none" stroke="#F44336" stroke-width="0.5" stroke-linejoin="round" stroke-miterlimit="10" d="M15.66,12.765
			c-0.023-0.074-0.051-0.146-0.083-0.213c-0.068-0.145-0.122-0.313-0.166-0.49c-0.215-0.906-0.126-2.097-0.126-2.097
			c-0.375,0.413-0.526,0.874-0.578,1.268c-0.067,0.513,0.035,0.906,0.035,0.906s-0.25-0.259-0.313-1.088
			c-0.027-0.38-0.016-0.879,0.079-1.527c0.299-2.063-1.341-3.595-1.341-3.595c0.686,2.961-1.159,4.758-1.159,4.758
			c0.093-1.112-0.588-1.955-0.588-1.955c0.107,1.886-1.586,3.545-1.096,4.938c0.386,1.093,1.085,1.421,1.545,1.682
			c0.451,0.257,0.957,0.324,1.416,0.324c0.42,0,0.794,0.032,1.199-0.229c0.711-0.456,1.22-1.243,1.22-2.184
			C15.707,13.094,15.688,12.927,15.66,12.765z"/>
	</g>
</g>
</svg>
