<?xml version="1.0" encoding="utf-8"?>
<!-- Generator: Adobe Illustrator 15.0.0, SVG Export Plug-In . SVG Version: 6.00 Build 0)  -->
<!DOCTYPE svg PUBLIC "-//W3C//DTD SVG 1.1//EN" "http://www.w3.org/Graphics/SVG/1.1/DTD/svg11.dtd">
<svg version="1.1" id="图层_1" xmlns="http://www.w3.org/2000/svg" xmlns:xlink="http://www.w3.org/1999/xlink" x="0px" y="0px"
	 width="32px" height="32px" viewBox="0.5 16.5 32 32" enable-background="new 0.5 16.5 32 32" xml:space="preserve">
<g>
	<path fill="#065493" d="M16.404,48.563c-8.821,0-16-7.177-16-16.001c0-8.822,7.18-15.999,16-15.999c8.824,0,16,7.177,16,15.999
		C32.403,41.386,25.228,48.563,16.404,48.563 M16.404,31.05c-0.833,0-1.513,0.679-1.513,1.513c0,0.835,0.678,1.515,1.513,1.515
		s1.513-0.68,1.513-1.515C17.917,31.729,17.237,31.05,16.404,31.05"/>
	<path fill="#1580C3" d="M16.404,17.114c-8.532,0-15.448,6.917-15.448,15.448c0,8.533,6.917,15.449,15.448,15.449
		c8.534,0,15.449-6.917,15.449-15.449C31.853,24.031,24.938,17.114,16.404,17.114 M16.404,47.562
		c-8.27,0-14.998-6.729-14.998-14.999c0-8.269,6.728-14.997,14.998-14.997c8.269,0,14.998,6.729,14.998,14.997
		C31.401,40.832,24.673,47.562,16.404,47.562"/>
</g>
<g>
	<g>
		<defs>
			<path id="SVGID_1_" d="M11.9,32.563c0-2.484,2.02-4.507,4.504-4.507c2.486,0,4.507,2.021,4.507,4.507
				c0,2.482-2.021,4.509-4.507,4.509C13.92,37.071,11.9,35.045,11.9,32.563 M3.531,32.563c0,7.101,5.776,12.875,12.873,12.875
				c7.101,0,12.875-5.774,12.875-12.875c0-7.099-5.774-12.873-12.875-12.873C9.306,19.689,3.531,25.464,3.531,32.563"/>
		</defs>
		<clipPath id="SVGID_2_">
			<use xlink:href="#SVGID_1_"  overflow="visible"/>
		</clipPath>
		<rect x="3.531" y="19.689" clip-path="url(#SVGID_2_)" fill="#2EA7E0" width="25.748" height="25.748"/>
	</g>
	<g>
		<g opacity="0.6">
			<path fill="#FFFFFF" d="M20.9,32.861l7.901,0.521l0.452-0.018c0.11-1.841-0.177-3.679-0.825-5.384l-7.816,2.979
				C20.842,31.561,20.941,32.211,20.9,32.861"/>
			<path fill="#FFFFFF" d="M11.91,32.266l-7.901-0.522l-0.452,0.019c-0.111,1.844,0.175,3.679,0.823,5.384l7.817-2.979
				C11.969,33.564,11.867,32.916,11.91,32.266"/>
		</g>
		<g opacity="0.6">
			<path fill="#FFFFFF" d="M20.297,30.296l6.842-3.986l0.366-0.266c-0.937-1.59-2.203-2.953-3.695-4.005l-4.812,6.842
				C19.522,29.252,19.969,29.733,20.297,30.296"/>
			<path fill="#FFFFFF" d="M12.512,34.83l-6.841,3.985l-0.366,0.267c0.938,1.589,2.202,2.953,3.693,4.004l4.814-6.84
				C13.288,35.875,12.841,35.393,12.512,34.83"/>
		</g>
		<g>
			<path fill="#F6F5F5" d="M16.404,17.565c-8.27,0-14.998,6.729-14.998,14.997c0,8.271,6.728,14.999,14.998,14.999
				c8.269,0,14.998-6.729,14.998-14.999C31.401,24.294,24.673,17.565,16.404,17.565 M16.404,45.438
				c-7.097,0-12.873-5.774-12.873-12.875c0-7.099,5.776-12.873,12.873-12.873c7.101,0,12.875,5.774,12.875,12.873
				C29.279,39.663,23.505,45.438,16.404,45.438"/>
			<path fill="#1580C3" d="M16.404,28.058c-2.485,0-4.504,2.02-4.504,4.505s2.019,4.507,4.504,4.507
				c2.486,0,4.507-2.021,4.507-4.507C20.911,30.077,18.89,28.058,16.404,28.058 M16.404,36.604c-2.226,0-4.038-1.814-4.038-4.041
				c0-2.228,1.813-4.039,4.038-4.039c2.228,0,4.042,1.813,4.042,4.039S18.632,36.604,16.404,36.604"/>
			<path fill="#F6F5F5" d="M16.404,28.523c-2.226,0-4.038,1.813-4.038,4.039c0,2.228,1.813,4.041,4.038,4.041
				c2.228,0,4.042-1.813,4.042-4.041C20.445,30.336,18.632,28.523,16.404,28.523 M16.404,34.628c-1.137,0-2.064-0.927-2.064-2.065
				c0-1.137,0.927-2.063,2.064-2.063c1.138,0,2.066,0.927,2.066,2.063C18.47,33.701,17.542,34.628,16.404,34.628"/>
		</g>
	</g>
</g>
<g>
	<g>
		<g>
			<defs>
				<path id="SVGID_3_" d="M25.186,42.146c0.021,0.24,0.027,0.404,0.027,0.404S25.193,42.404,25.186,42.146 M25.424,40.007
					c-0.23,0.937-0.253,1.702-0.238,2.14c-0.06-0.571-0.246-1.623-0.863-2.176c0,0,0.121,1.223-0.385,2.158
					c-0.502,0.938-1.287,2.811,0.571,5.456c0,0-0.149-0.04-0.389-0.129c0.792,0.491,1.726,0.78,2.729,0.78
					c0.92,0,1.783-0.24,2.533-0.661c-0.4,0.196-0.83,0.321-1.281,0.339c0,0,1.826-1.473,1.323-3.417
					c-0.502-1.945-0.077-2.368-0.077-2.368s-1.113,0.717-1.156,1.855c0,0-2.168-1.819-0.854-5.994
					C27.339,37.99,25.79,38.525,25.424,40.007"/>
			</defs>
			<clipPath id="SVGID_4_">
				<use xlink:href="#SVGID_3_"  overflow="visible"/>
			</clipPath>
			
				<linearGradient id="SVGID_5_" gradientUnits="userSpaceOnUse" x1="-37.4731" y1="32.4434" x2="-36.1578" y2="32.4434" gradientTransform="matrix(0 -7.9065 7.9065 0 -230.2268 -248.0427)">
				<stop  offset="0" style="stop-color:#E36D16"/>
				<stop  offset="1" style="stop-color:#F5E346"/>
			</linearGradient>
			<rect x="22.65" y="37.99" clip-path="url(#SVGID_4_)" fill="url(#SVGID_5_)" width="7.277" height="10.246"/>
		</g>
	</g>
	<g>
		<g>
			<defs>
				<path id="SVGID_6_" d="M23.949,37.663c0.197-2.315-1.289-4.071-1.289-4.071c0.234,3.928-3.477,7.383-2.402,10.284
					c0.848,2.276,2.979,3.263,3.862,3.58c0.237,0.089,0.389,0.129,0.389,0.129c-1.858-2.646-1.073-4.519-0.571-5.456
					c0.506-0.938,0.385-2.158,0.385-2.158c0.617,0.553,0.805,1.604,0.863,2.176c-0.015-0.438,0.008-1.203,0.238-2.14
					c0.366-1.481,1.915-2.017,1.915-2.017c-1.313,4.175,0.853,5.994,0.853,5.994c0.043-1.139,1.158-1.855,1.158-1.855
					s-0.426,0.423,0.076,2.368c0.504,1.944-1.322,3.417-1.322,3.417c0.451-0.018,0.881-0.143,1.28-0.339
					c1.593-0.888,2.671-2.585,2.671-4.537c0-0.361-0.039-0.709-0.104-1.047c-0.053-0.154-0.112-0.304-0.182-0.444
					c-0.151-0.3-0.268-0.65-0.363-1.02c-0.475-1.885-0.276-4.364-0.276-4.364c-0.821,0.856-1.153,1.819-1.267,2.637
					c-0.151,1.068,0.072,1.89,0.072,1.89s-0.547-0.541-0.68-2.265c-0.061-0.789-0.035-1.829,0.169-3.183
					c0.657-4.297-2.935-7.488-2.935-7.488C27.995,33.923,23.949,37.663,23.949,37.663"/>
			</defs>
			<clipPath id="SVGID_7_">
				<use xlink:href="#SVGID_6_"  overflow="visible"/>
			</clipPath>
			
				<linearGradient id="SVGID_8_" gradientUnits="userSpaceOnUse" x1="-9.9902" y1="15.9453" x2="-8.6747" y2="15.9453" gradientTransform="matrix(0 -15.8134 15.8134 0 -226.5383 -109.4226)">
				<stop  offset="0" style="stop-color:#E64637"/>
				<stop  offset="1" style="stop-color:#EBA423"/>
			</linearGradient>
			<rect x="19.184" y="27.754" clip-path="url(#SVGID_7_)" fill="url(#SVGID_8_)" width="12.871" height="20.16"/>
		</g>
	</g>
	<g>
		<path fill="none" stroke="#E64637" stroke-width="0.5" stroke-linejoin="round" stroke-miterlimit="10" d="M31.951,41.991
			c-0.053-0.154-0.11-0.304-0.182-0.442c-0.151-0.302-0.271-0.652-0.363-1.021c-0.475-1.885-0.276-4.364-0.276-4.364
			c-0.821,0.856-1.153,1.819-1.267,2.637c-0.151,1.068,0.074,1.89,0.074,1.89s-0.549-0.541-0.684-2.265
			c-0.061-0.792-0.033-1.832,0.171-3.183c0.657-4.297-2.938-7.487-2.938-7.487c1.508,6.167-2.543,9.908-2.543,9.908
			c0.205-2.315-1.284-4.071-1.284-4.071c0.233,3.928-3.478,7.383-2.402,10.284c0.847,2.276,2.38,2.962,3.386,3.505
			c0.987,0.533,2.101,0.674,3.104,0.674c0.92,0,1.741,0.069,2.632-0.477c1.559-0.947,2.676-2.588,2.676-4.545
			C32.055,42.677,32.016,42.329,31.951,41.991z"/>
	</g>
</g>
</svg>
