<?xml version="1.0" encoding="utf-8"?>
<!-- Generator: Adobe Illustrator 15.0.0, SVG Export Plug-In . SVG Version: 6.00 Build 0)  -->
<!DOCTYPE svg PUBLIC "-//W3C//DTD SVG 1.1//EN" "http://www.w3.org/Graphics/SVG/1.1/DTD/svg11.dtd">
<svg version="1.1" id="图层_1" xmlns="http://www.w3.org/2000/svg" xmlns:xlink="http://www.w3.org/1999/xlink" x="0px" y="0px"
	 width="16px" height="16px" viewBox="0.5 16.5 16 16" enable-background="new 0.5 16.5 16 16" xml:space="preserve">
<path fill="#065493" d="M8.5,32.5c-4.411,0-8-3.59-8-8c0-4.412,3.589-8,8-8c4.41,0,8,3.588,8,8C16.5,28.91,12.91,32.5,8.5,32.5
	 M8.5,23.75c-0.415,0-0.75,0.335-0.75,0.75s0.335,0.749,0.75,0.749c0.417,0,0.749-0.334,0.749-0.749S8.915,23.75,8.5,23.75"/>
<path fill="#1580C3" d="M8.5,17C4.356,17,1,20.356,1,24.5c0,4.143,3.357,7.498,7.5,7.498c4.144,0,7.498-3.355,7.498-7.498
	C15.998,20.356,12.644,17,8.5,17 M8.5,31.781c-4.015,0-7.281-3.269-7.281-7.281c0-4.015,3.265-7.283,7.281-7.283
	c4.015,0,7.283,3.267,7.283,7.283C15.783,28.515,12.515,31.781,8.5,31.781"/>
<g>
	<defs>
		<path id="SVGID_1_" d="M6.313,24.5c0-1.206,0.982-2.188,2.188-2.188c1.206,0,2.187,0.981,2.187,2.188s-0.98,2.188-2.187,2.188
			S6.313,25.706,6.313,24.5 M2.25,24.5c0,3.443,2.804,6.25,6.25,6.25c3.446,0,6.25-2.807,6.25-6.25c0-3.446-2.804-6.25-6.25-6.25
			C5.056,18.25,2.25,21.054,2.25,24.5"/>
	</defs>
	<clipPath id="SVGID_2_">
		<use xlink:href="#SVGID_1_"  overflow="visible"/>
	</clipPath>
	<rect x="2.25" y="18.25" clip-path="url(#SVGID_2_)" fill="#2EA7E0" width="12.5" height="12.5"/>
</g>
<g opacity="0.6">
	<path fill="#FFFFFF" d="M10.683,24.644l3.836,0.254l0.217-0.008c0.059-0.896-0.081-1.787-0.397-2.615l-3.793,1.446
		C10.652,24.014,10.7,24.327,10.683,24.644"/>
	<path fill="#FFFFFF" d="M6.318,24.354l-3.836-0.252l-0.22,0.007c-0.054,0.895,0.085,1.786,0.4,2.614l3.794-1.446
		C6.345,24.985,6.297,24.671,6.318,24.354"/>
</g>
<g>
	<g opacity="0.6">
		<path fill="#FFFFFF" d="M10.39,23.397l3.319-1.935l0.179-0.129c-0.455-0.771-1.07-1.437-1.793-1.943l-2.336,3.321
			C10.014,22.892,10.229,23.125,10.39,23.397"/>
		<path fill="#FFFFFF" d="M6.61,25.601l-3.32,1.935l-0.178,0.13c0.454,0.772,1.069,1.433,1.793,1.942l2.338-3.32
			C6.986,26.107,6.769,25.874,6.61,25.601"/>
	</g>
	<g>
		<path fill="#F6F5F5" d="M8.5,17.25c-4,0-7.25,3.251-7.25,7.25c0,3.997,3.251,7.249,7.25,7.249c4,0,7.25-3.252,7.25-7.249
			C15.75,20.501,12.498,17.25,8.5,17.25 M8.5,30.723c-3.432,0-6.224-2.792-6.224-6.223c0-3.434,2.792-6.223,6.224-6.223
			c3.432,0,6.224,2.789,6.224,6.223C14.724,27.931,11.932,30.723,8.5,30.723"/>
		<path fill="#1580C3" d="M8.5,22.25c-1.241,0-2.25,1.01-2.25,2.25c0,1.239,1.01,2.248,2.25,2.248c1.24,0,2.248-1.009,2.248-2.248
			C10.748,23.26,9.74,22.25,8.5,22.25 M8.5,26.519c-1.111,0-2.018-0.906-2.018-2.019c0-1.111,0.907-2.019,2.018-2.019
			c1.11,0,2.019,0.907,2.019,2.019C10.519,25.61,9.61,26.519,8.5,26.519"/>
		<path fill="#F6F5F5" d="M8.5,22.5c-1.103,0-2,0.896-2,2c0,1.104,0.898,1.999,2,1.999c1.101,0,2-0.896,2-1.999
			C10.5,23.396,9.601,22.5,8.5,22.5 M8.5,25.5c-0.553,0-1-0.45-1-1c0-0.552,0.448-1,1-1c0.552,0,1,0.448,1,1
			C9.5,25.05,9.052,25.5,8.5,25.5"/>
	</g>
</g>
</svg>
