<?xml version="1.0" encoding="utf-8"?>
<!-- Generator: Adobe Illustrator 15.0.0, SVG Export Plug-In . SVG Version: 6.00 Build 0)  -->
<!DOCTYPE svg PUBLIC "-//W3C//DTD SVG 1.1//EN" "http://www.w3.org/Graphics/SVG/1.1/DTD/svg11.dtd">
<svg version="1.1" id="图层_1" xmlns="http://www.w3.org/2000/svg" xmlns:xlink="http://www.w3.org/1999/xlink" x="0px" y="0px"
	 width="24px" height="24px" viewBox="0.5 16.5 24 24" enable-background="new 0.5 16.5 24 24" xml:space="preserve">
<g>
	<path fill="#065493" d="M12.5,40.5c-6.616,0-12-5.384-12-12s5.384-12,12-12s12,5.384,12,12S19.116,40.5,12.5,40.5 M12.5,27.516
		c-0.544,0-0.985,0.44-0.985,0.984s0.441,0.984,0.985,0.984s0.984-0.442,0.984-0.984S13.044,27.516,12.5,27.516"/>
	<path fill="#1580C3" d="M12.5,17.044c-6.326,0-11.455,5.129-11.455,11.456c0,6.325,5.128,11.453,11.455,11.453
		S23.953,34.826,23.953,28.5C23.953,22.173,18.826,17.044,12.5,17.044 M12.5,39.62c-6.133,0-11.119-4.989-11.119-11.12
		c0-6.133,4.986-11.12,11.119-11.12c6.132,0,11.12,4.988,11.12,11.12C23.62,34.631,18.632,39.62,12.5,39.62"/>
</g>
<g>
	<g>
		<g>
			<g>
				<g>
					<defs>
						<path id="SVGID_1_" d="M9.159,28.5c0-1.842,1.5-3.342,3.341-3.342c1.839,0,3.341,1.5,3.341,3.342s-1.502,3.341-3.341,3.341
							C10.658,31.841,9.159,30.342,9.159,28.5 M2.955,28.5c0,5.261,4.283,9.547,9.545,9.547c5.261,0,9.547-4.283,9.547-9.547
							c0-5.266-4.283-9.544-9.547-9.544C7.237,18.956,2.955,23.234,2.955,28.5"/>
					</defs>
					<clipPath id="SVGID_2_">
						<use xlink:href="#SVGID_1_"  overflow="visible"/>
					</clipPath>
					<rect x="2.955" y="18.956" clip-path="url(#SVGID_2_)" fill="#2EA7E0" width="19.092" height="19.091"/>
				</g>
			</g>
		</g>
		<path opacity="0.6" fill="#FFFFFF" enable-background="new    " d="M15.832,28.719l5.857,0.387l0.336-0.012
			c0.084-1.365-0.129-2.729-0.61-3.992l-5.795,2.209C15.79,27.757,15.864,28.236,15.832,28.719"/>
		<path opacity="0.6" fill="#FFFFFF" enable-background="new    " d="M9.167,28.279L3.31,27.891l-0.337,0.014
			c-0.083,1.367,0.129,2.729,0.614,3.992l5.795-2.209C9.209,29.243,9.137,28.761,9.167,28.279"/>
		<g>
			<g opacity="0.6">
				<path fill="#FFFFFF" d="M15.386,26.818l5.073-2.955l0.271-0.195c-0.694-1.182-1.635-2.189-2.739-2.97l-3.569,5.071
					C14.811,26.044,15.145,26.4,15.386,26.818"/>
				<path fill="#FFFFFF" d="M9.613,30.182l-5.072,2.955L4.27,33.335c0.695,1.176,1.634,2.188,2.738,2.968l3.569-5.072
					C10.188,30.956,9.858,30.6,9.613,30.182"/>
			</g>
			<g>
				<path fill="#F6F5F5" d="M12.5,17.38c-6.133,0-11.119,4.988-11.119,11.12S6.367,39.62,12.5,39.62
					c6.132,0,11.12-4.988,11.12-11.12C23.62,22.367,18.632,17.38,12.5,17.38 M12.5,38C7.237,38,3,33.764,3,28.5S7.237,19,12.5,19
					c5.261,0,9.5,4.236,9.5,9.5C22,33.761,17.761,38,12.5,38"/>
				<path fill="#1580C3" d="M12.5,25.159c-1.842,0-3.341,1.499-3.341,3.341s1.5,3.341,3.341,3.341s3.341-1.499,3.341-3.341
					S14.342,25.159,12.5,25.159 M12.5,31.496c-1.651,0-2.996-1.346-2.996-2.997c0-1.649,1.344-2.996,2.996-2.996
					c1.652,0,2.996,1.347,2.996,2.997S14.15,31.496,12.5,31.496"/>
				<path fill="#F6F5F5" d="M12.5,25.504c-1.651,0-2.996,1.346-2.996,2.996s1.344,2.996,2.996,2.996
					c1.652,0,2.996-1.346,2.996-2.996S14.15,25.504,12.5,25.504 M12.5,30.029c-0.843,0-1.53-0.688-1.53-1.529
					c0-0.846,0.687-1.529,1.53-1.529c0.844,0,1.529,0.687,1.529,1.529S13.344,30.029,12.5,30.029"/>
			</g>
		</g>
	</g>
</g>
<g>
	<g>
		<g>
			<g>
				<defs>
					<path id="SVGID_3_" d="M19.516,35.813c0.017,0.164,0.021,0.275,0.021,0.275S19.521,35.988,19.516,35.813 M19.672,34.357
						c-0.148,0.639-0.164,1.158-0.154,1.455c-0.039-0.39-0.158-1.104-0.559-1.479c0,0,0.079,0.83-0.248,1.467
						c-0.322,0.638-0.83,1.91,0.369,3.707c0,0-0.098-0.026-0.251-0.088c0.513,0.334,1.114,0.531,1.763,0.531
						c0.594,0,1.151-0.164,1.637-0.449c-0.26,0.134-0.535,0.22-0.826,0.229c0,0,1.179-1,0.854-2.321
						c-0.326-1.322-0.051-1.609-0.051-1.609s-0.721,0.486-0.747,1.263c0,0-1.399-1.236-0.551-4.074
						C20.907,32.988,19.907,33.352,19.672,34.357"/>
				</defs>
				<clipPath id="SVGID_4_">
					<use xlink:href="#SVGID_3_"  overflow="visible"/>
				</clipPath>
				
					<linearGradient id="SVGID_5_" gradientUnits="userSpaceOnUse" x1="-94.2876" y1="-49.9453" x2="-93.3932" y2="-49.9453" gradientTransform="matrix(0 -7.9065 -7.9065 0 -374.6609 -705.5359)">
					<stop  offset="0" style="stop-color:#EE6F0B"/>
					<stop  offset="1" style="stop-color:#FFEB3B"/>
				</linearGradient>
				<rect x="17.881" y="32.988" clip-path="url(#SVGID_4_)" fill="url(#SVGID_5_)" width="4.698" height="6.965"/>
			</g>
		</g>
	</g>
	<g>
		<g>
			<g>
				<defs>
					<path id="SVGID_6_" d="M18.719,32.766c0.129-1.572-0.832-2.768-0.832-2.768c0.151,2.67-2.244,5.018-1.551,6.988
						c0.547,1.549,1.924,2.219,2.493,2.434c0.153,0.063,0.251,0.088,0.251,0.088c-1.199-1.797-0.691-3.068-0.369-3.707
						c0.327-0.637,0.248-1.467,0.248-1.467c0.398,0.375,0.52,1.09,0.559,1.479c-0.01-0.297,0.006-0.815,0.154-1.453
						c0.235-1.008,1.235-1.37,1.235-1.37c-0.849,2.838,0.551,4.073,0.551,4.073c0.026-0.772,0.747-1.262,0.747-1.262
						s-0.273,0.287,0.051,1.609c0.323,1.32-0.854,2.32-0.854,2.32c0.291-0.012,0.566-0.097,0.826-0.229
						c1.027-0.604,1.725-1.758,1.725-3.084c0-0.246-0.023-0.48-0.064-0.711c-0.033-0.104-0.072-0.207-0.117-0.303
						c-0.099-0.203-0.172-0.441-0.234-0.691c-0.307-1.281-0.18-2.967-0.18-2.967c-0.529,0.582-0.744,1.236-0.816,1.791
						c-0.098,0.729,0.047,1.283,0.047,1.283s-0.354-0.365-0.438-1.537c-0.039-0.537-0.023-1.244,0.108-2.164
						c0.425-2.92-1.896-5.09-1.896-5.09C21.331,30.225,18.719,32.766,18.719,32.766"/>
				</defs>
				<clipPath id="SVGID_7_">
					<use xlink:href="#SVGID_6_"  overflow="visible"/>
				</clipPath>
				
					<linearGradient id="SVGID_8_" gradientUnits="userSpaceOnUse" x1="-40.8906" y1="-15.2109" x2="-39.9964" y2="-15.2109" gradientTransform="matrix(0 -15.8134 -15.8134 0 -220.7387 -606.4575)">
					<stop  offset="0" style="stop-color:#F44336"/>
					<stop  offset="1" style="stop-color:#F5A816"/>
				</linearGradient>
				<rect x="15.643" y="26.031" clip-path="url(#SVGID_7_)" fill="url(#SVGID_8_)" width="8.31" height="13.701"/>
			</g>
		</g>
	</g>
	<g>
		<path fill="none" stroke="#F44336" stroke-width="0.5" stroke-linejoin="round" stroke-miterlimit="10" d="M23.885,35.707
			c-0.033-0.104-0.07-0.205-0.115-0.301c-0.1-0.205-0.176-0.443-0.234-0.693c-0.307-1.279-0.18-2.967-0.18-2.967
			c-0.529,0.584-0.744,1.236-0.816,1.793c-0.098,0.727,0.048,1.283,0.048,1.283s-0.354-0.367-0.438-1.539
			c-0.039-0.537-0.022-1.244,0.108-2.162c0.425-2.92-1.896-5.088-1.896-5.088c0.973,4.191-1.643,6.732-1.643,6.732
			c0.131-1.572-0.83-2.767-0.83-2.767c0.15,2.668-2.244,5.017-1.552,6.987c0.548,1.55,1.536,2.015,2.187,2.384
			c0.639,0.36,1.354,0.457,2.004,0.457c0.595,0,1.125,0.047,1.699-0.324c1.006-0.644,1.728-1.758,1.728-3.088
			C23.951,36.172,23.928,35.938,23.885,35.707z"/>
	</g>
</g>
</svg>
