<?xml version="1.0" encoding="utf-8"?>
<!-- Generator: Adobe Illustrator 15.0.0, SVG Export Plug-In . SVG Version: 6.00 Build 0)  -->
<!DOCTYPE svg PUBLIC "-//W3C//DTD SVG 1.1//EN" "http://www.w3.org/Graphics/SVG/1.1/DTD/svg11.dtd">
<svg version="1.1" id="图层_1" xmlns="http://www.w3.org/2000/svg" xmlns:xlink="http://www.w3.org/1999/xlink" x="0px" y="0px"
	 width="32px" height="32px" viewBox="0.5 16.5 32 32" enable-background="new 0.5 16.5 32 32" xml:space="preserve">
<g>
	<polygon fill="#F6F6F6" stroke="#888888" stroke-width="0.5" points="2,20 16,20 20,25 20,43 2,43 	"/>
	<polyline fill="#EEEEEE" stroke="#888888" stroke-width="0.5" points="16,20 16,25 20,25 	"/>
</g>
<g>
	<path fill="#FFFFFF" stroke="#888888" stroke-width="0.5" d="M18,32.954C18,36.82,14.866,40,11,40s-7-3.134-7-7s3.134-7,7-7
		S18,29.088,18,32.954z"/>
	<path fill="#C9C9C9" d="M16.5,32.964c0,3.037-2.462,5.536-5.5,5.536S5.5,36.038,5.5,33s2.462-5.5,5.5-5.5S16.5,29.927,16.5,32.964z
		"/>
	<path fill="#FFFFFF" stroke="#B7B7B7" stroke-width="0.5" d="M12.5,32.99c0,0.828-0.672,1.51-1.5,1.51S9.5,33.828,9.5,33
		s0.672-1.5,1.5-1.5S12.5,32.161,12.5,32.99z"/>
</g>
<g>
	<circle fill="#FFFFFF" stroke="#065493" stroke-width="0.5" stroke-miterlimit="10" cx="22" cy="37" r="9"/>
	<circle fill="#2EA7E0" cx="22" cy="36.943" r="7.5"/>
	<circle fill="#FFFFFF" stroke="#1580C3" stroke-width="0.5" stroke-miterlimit="10" cx="22" cy="36.943" r="2"/>
	<g>
		<path opacity="0.6" fill="#FFFFFF" enable-background="new    " d="M24.496,37.164l4.386,0.289l0.251-0.01
			c0.063-1.021-0.097-2.043-0.458-2.988l-4.338,1.654C24.464,36.443,24.52,36.803,24.496,37.164"/>
		<path opacity="0.6" fill="#FFFFFF" enable-background="new    " d="M19.507,36.835l-4.385-0.29l-0.252,0.01
			c-0.062,1.022,0.096,2.043,0.46,2.988l4.338-1.652C19.538,37.557,19.482,37.195,19.507,36.835"/>
		<path opacity="0.6" fill="#FFFFFF" enable-background="new    " d="M24.162,35.742l3.798-2.213l0.204-0.146
			c-0.521-0.883-1.227-1.64-2.053-2.223l-2.672,3.796C23.73,35.162,23.979,35.43,24.162,35.742"/>
		<path opacity="0.6" fill="#FFFFFF" enable-background="new    " d="M19.841,38.258l-3.797,2.213l-0.203,0.148
			c0.521,0.881,1.224,1.64,2.052,2.222l2.67-3.797C20.271,38.838,20.023,38.57,19.841,38.258"/>
	</g>
</g>
<polygon fill="#7BD027" stroke="#2D7E01" stroke-width="0.5" points="15,36 15,35 19,37.453 15,40 15,39 10,39 10,36 "/>
</svg>
