<?xml version="1.0" encoding="utf-8"?>
<!-- Generator: Adobe Illustrator 15.0.0, SVG Export Plug-In . SVG Version: 6.00 Build 0)  -->
<!DOCTYPE svg PUBLIC "-//W3C//DTD SVG 1.1//EN" "http://www.w3.org/Graphics/SVG/1.1/DTD/svg11.dtd">
<svg version="1.1" id="图层_1" xmlns="http://www.w3.org/2000/svg" xmlns:xlink="http://www.w3.org/1999/xlink" x="0px" y="0px"
	 width="32px" height="32px" viewBox="0.5 16.5 32 32" enable-background="new 0.5 16.5 32 32" xml:space="preserve">
<g>
	<path fill="#065493" d="M16.5,48.5c-8.82,0-16-7.177-16-16.001c0-8.822,7.18-15.999,16-15.999c8.824,0,16,7.177,16,15.999
		C32.5,41.322,25.324,48.5,16.5,48.5 M16.5,30.986c-0.833,0-1.512,0.679-1.512,1.513c0,0.835,0.678,1.515,1.512,1.515
		c0.835,0,1.514-0.68,1.514-1.515C18.014,31.666,17.334,30.986,16.5,30.986"/>
	<path fill="#1580C3" d="M16.5,17.051c-8.531,0-15.448,6.917-15.448,15.448c0,8.533,6.917,15.449,15.448,15.449
		c8.534,0,15.449-6.917,15.449-15.449C31.949,23.968,25.034,17.051,16.5,17.051 M16.5,47.498c-8.269,0-14.997-6.729-14.997-14.999
		c0-8.269,6.728-14.997,14.997-14.997c8.27,0,14.998,6.729,14.998,14.997C31.498,40.769,24.77,47.498,16.5,47.498"/>
</g>
<g>
	<g>
		<defs>
			<path id="SVGID_1_" d="M11.997,32.499c0-2.484,2.02-4.507,4.503-4.507c2.486,0,4.508,2.021,4.508,4.507
				c0,2.482-2.021,4.509-4.508,4.509C14.017,37.008,11.997,34.981,11.997,32.499 M3.628,32.499c0,7.101,5.776,12.875,12.872,12.875
				c7.102,0,12.876-5.774,12.876-12.875c0-7.099-5.774-12.873-12.876-12.873C9.403,19.626,3.628,25.4,3.628,32.499"/>
		</defs>
		<clipPath id="SVGID_2_">
			<use xlink:href="#SVGID_1_"  overflow="visible"/>
		</clipPath>
		<rect x="3.628" y="19.626" clip-path="url(#SVGID_2_)" fill="#2EA7E0" width="25.748" height="25.748"/>
	</g>
	<g>
		<g opacity="0.6">
			<path fill="#FFFFFF" d="M20.997,32.798l7.901,0.521l0.452-0.018c0.11-1.841-0.177-3.679-0.825-5.384l-7.816,2.979
				C20.938,31.497,21.038,32.147,20.997,32.798"/>
			<path fill="#FFFFFF" d="M12.007,32.202L4.106,31.68l-0.452,0.019c-0.111,1.844,0.175,3.679,0.823,5.384l7.817-2.979
				C12.065,33.501,11.964,32.853,12.007,32.202"/>
		</g>
		<g opacity="0.6">
			<path fill="#FFFFFF" d="M20.394,30.232l6.842-3.986l0.366-0.266c-0.937-1.59-2.203-2.953-3.695-4.005l-4.812,6.842
				C19.619,29.188,20.065,29.67,20.394,30.232"/>
			<path fill="#FFFFFF" d="M12.608,34.767l-6.841,3.985l-0.366,0.267c0.938,1.589,2.202,2.953,3.693,4.004l4.814-6.84
				C13.385,35.812,12.938,35.329,12.608,34.767"/>
		</g>
		<g>
			<path fill="#F6F5F5" d="M16.5,17.502c-8.269,0-14.997,6.729-14.997,14.997c0,8.271,6.728,14.999,14.997,14.999
				c8.27,0,14.998-6.729,14.998-14.999C31.498,24.23,24.77,17.502,16.5,17.502 M16.5,45.374c-7.096,0-12.872-5.774-12.872-12.875
				c0-7.099,5.776-12.873,12.872-12.873c7.102,0,12.876,5.774,12.876,12.873C29.376,39.6,23.602,45.374,16.5,45.374"/>
			<path fill="#1580C3" d="M16.5,27.994c-2.484,0-4.503,2.02-4.503,4.505s2.019,4.507,4.503,4.507c2.486,0,4.508-2.021,4.508-4.507
				C21.008,30.014,18.986,27.994,16.5,27.994 M16.5,36.54c-2.225,0-4.038-1.814-4.038-4.041c0-2.228,1.813-4.039,4.038-4.039
				c2.229,0,4.042,1.813,4.042,4.039S18.729,36.54,16.5,36.54"/>
			<path fill="#F6F5F5" d="M16.5,28.46c-2.225,0-4.038,1.813-4.038,4.039c0,2.228,1.813,4.041,4.038,4.041
				c2.229,0,4.042-1.813,4.042-4.041C20.542,30.272,18.729,28.46,16.5,28.46 M16.5,34.564c-1.137,0-2.064-0.927-2.064-2.065
				c0-1.137,0.927-2.063,2.064-2.063c1.139,0,2.066,0.927,2.066,2.063C18.566,33.638,17.639,34.564,16.5,34.564"/>
		</g>
	</g>
</g>
</svg>
