<?xml version="1.0" encoding="utf-8"?>
<!-- Generator: Adobe Illustrator 15.0.0, SVG Export Plug-In . SVG Version: 6.00 Build 0)  -->
<!DOCTYPE svg PUBLIC "-//W3C//DTD SVG 1.1//EN" "http://www.w3.org/Graphics/SVG/1.1/DTD/svg11.dtd">
<svg version="1.1" id="图层_1" xmlns="http://www.w3.org/2000/svg" xmlns:xlink="http://www.w3.org/1999/xlink" x="0px" y="0px"
	 width="22px" height="22px" viewBox="0.5 16.5 22 22" enable-background="new 0.5 16.5 22 22" xml:space="preserve">
<g>
	<polygon fill="#F6F6F6" stroke="#888888" stroke-width="0.5" points="1.5,19.5 11.639,19.5 14.534,23.121 14.534,36.154 
		1.5,36.154 	"/>
	<polyline fill="#EEEEEE" stroke="#888888" stroke-width="0.5" points="11.639,19.5 11.639,23.121 14.534,23.121 	"/>
</g>
<g>
	<path fill="#FFFFFF" stroke="#888888" stroke-width="0.5" d="M13.086,28.881c0,2.799-2.269,5.102-5.068,5.102
		c-2.799,0-5.069-2.27-5.069-5.067c0-2.801,2.27-5.069,5.069-5.069C10.817,23.846,13.086,26.08,13.086,28.881z"/>
	<path fill="#C9C9C9" d="M12,28.887c0,2.199-1.783,4.01-3.982,4.01c-2.2,0-3.983-1.782-3.983-3.981c0-2.201,1.783-3.981,3.983-3.981
		C10.217,24.932,12,26.688,12,28.887z"/>
	<path fill="#FFFFFF" stroke="#B7B7B7" stroke-width="0.5" d="M9.104,28.906c0,0.6-0.486,1.094-1.086,1.094
		s-1.086-0.486-1.086-1.086s0.486-1.086,1.086-1.086C8.617,27.828,9.104,28.307,9.104,28.906z"/>
</g>
<g>
	<circle fill="#FFFFFF" stroke="#065493" stroke-width="0.5" stroke-miterlimit="10" cx="15.482" cy="30.396" r="6.517"/>
	<circle fill="#2EA7E0" cx="15.482" cy="30.355" r="5.431"/>
	<circle fill="#FFFFFF" stroke="#1580C3" stroke-width="0.5" stroke-miterlimit="10" cx="15.482" cy="30.355" r="1.448"/>
	<g>
		<path opacity="0.6" fill="#FFFFFF" enable-background="new    " d="M17.29,30.516l3.176,0.209l0.183-0.006
			c0.045-0.74-0.069-1.479-0.332-2.166l-3.142,1.199C17.268,29.992,17.309,30.254,17.29,30.516"/>
		<path opacity="0.6" fill="#FFFFFF" enable-background="new    " d="M13.678,30.277l-3.176-0.211l-0.183,0.006
			c-0.045,0.742,0.069,1.479,0.333,2.166l3.141-1.197C13.7,30.799,13.66,30.537,13.678,30.277"/>
		<path opacity="0.6" fill="#FFFFFF" enable-background="new    " d="M17.049,29.484l2.75-1.603l0.146-0.104
			c-0.377-0.642-0.887-1.188-1.484-1.609l-1.936,2.748C16.736,29.064,16.916,29.26,17.049,29.484"/>
		<path opacity="0.6" fill="#FFFFFF" enable-background="new    " d="M13.919,31.307L11.17,32.91l-0.147,0.107
			c0.377,0.637,0.886,1.188,1.485,1.606l1.934-2.748C14.23,31.727,14.052,31.533,13.919,31.307"/>
	</g>
</g>
<polygon fill="#7BD027" stroke="#2D7E01" stroke-width="0.5" points="10.775,30.033 10.775,29.311 13.673,31.086 10.775,32.93 
	10.775,32.207 7.155,32.207 7.155,30.033 "/>
</svg>
