<?xml version="1.0" encoding="utf-8"?>
<!-- Generator: Adobe Illustrator 15.0.0, SVG Export Plug-In . SVG Version: 6.00 Build 0)  -->
<!DOCTYPE svg PUBLIC "-//W3C//DTD SVG 1.1//EN" "http://www.w3.org/Graphics/SVG/1.1/DTD/svg11.dtd">
<svg version="1.1" id="图层_1" xmlns="http://www.w3.org/2000/svg" xmlns:xlink="http://www.w3.org/1999/xlink" x="0px" y="0px"
	 width="22px" height="22px" viewBox="0.5 16.5 22 22" enable-background="new 0.5 16.5 22 22" xml:space="preserve">
<g>
	<path fill="#065493" d="M11.5,38.5c-6.065,0-11-4.936-11-11s4.935-11,11-11c6.064,0,11,4.936,11,11S17.564,38.5,11.5,38.5
		 M11.5,26.598c-0.499,0-0.903,0.403-0.903,0.902s0.404,0.902,0.903,0.902s0.902-0.405,0.902-0.902S11.999,26.598,11.5,26.598"/>
	<path fill="#1580C3" d="M11.5,16.999C5.701,16.999,1,21.7,1,27.5c0,5.798,4.701,10.499,10.5,10.499s10.499-4.7,10.499-10.499
		C21.999,21.7,17.299,16.999,11.5,16.999 M11.5,37.693c-5.622,0-10.192-4.573-10.192-10.193c0-5.622,4.571-10.193,10.192-10.193
		c5.621,0,10.193,4.572,10.193,10.193C21.693,33.12,17.121,37.693,11.5,37.693"/>
	<g>
		<defs>
			<path id="SVGID_1_" d="M8.437,27.5c0-1.688,1.375-3.063,3.063-3.063c1.686,0,3.063,1.375,3.063,3.063s-1.377,3.063-3.063,3.063
				C9.812,30.563,8.437,29.188,8.437,27.5 M2.75,27.5c0,4.822,3.926,8.751,8.75,8.751c4.822,0,8.751-3.926,8.751-8.751
				c0-4.827-3.926-8.749-8.751-8.749C6.676,18.751,2.75,22.673,2.75,27.5"/>
		</defs>
		<clipPath id="SVGID_2_">
			<use xlink:href="#SVGID_1_"  overflow="visible"/>
		</clipPath>
		<rect x="2.75" y="18.751" clip-path="url(#SVGID_2_)" fill="#2EA7E0" width="17.501" height="17.5"/>
	</g>
	<g opacity="0.6">
		<path fill="#FFFFFF" d="M14.555,27.7l5.37,0.354l0.308-0.011c0.076-1.251-0.118-2.502-0.561-3.66l-5.312,2.025
			C14.516,26.818,14.584,27.259,14.555,27.7"/>
		<path fill="#FFFFFF" d="M8.444,27.298l-5.369-0.355l-0.309,0.012c-0.076,1.253,0.118,2.503,0.563,3.66l5.313-2.024
			C8.484,28.182,8.417,27.739,8.444,27.298"/>
	</g>
	<g opacity="0.6">
		<path fill="#FFFFFF" d="M14.146,25.959l4.649-2.709l0.249-0.18c-0.638-1.082-1.5-2.008-2.511-2.723l-3.271,4.65
			C13.618,25.249,13.923,25.576,14.146,25.959"/>
		<path fill="#FFFFFF" d="M8.854,29.041L4.205,31.75l-0.249,0.182c0.637,1.077,1.498,2.008,2.51,2.721l3.272-4.65
			C9.381,29.751,9.078,29.424,8.854,29.041"/>
	</g>
	<path fill="#F6F5F5" d="M11.5,17.307c-5.622,0-10.192,4.572-10.192,10.193S5.878,37.693,11.5,37.693
		c5.621,0,10.193-4.572,10.193-10.193C21.693,21.878,17.121,17.307,11.5,17.307 M11.5,36.251c-4.824,0-8.75-3.926-8.75-8.751
		s3.926-8.749,8.75-8.749c4.822,0,8.751,3.924,8.751,8.749C20.251,32.322,16.322,36.251,11.5,36.251"/>
	<path fill="#1580C3" d="M11.5,24.438c-1.688,0-3.063,1.374-3.063,3.063s1.375,3.063,3.063,3.063s3.063-1.374,3.063-3.063
		S13.188,24.438,11.5,24.438 M11.5,30.246c-1.514,0-2.746-1.232-2.746-2.747c0-1.513,1.232-2.746,2.746-2.746
		s2.746,1.233,2.746,2.747S13.014,30.246,11.5,30.246"/>
	<path fill="#F6F5F5" d="M11.5,24.754c-1.514,0-2.746,1.232-2.746,2.746s1.232,2.746,2.746,2.746s2.746-1.232,2.746-2.746
		S13.014,24.754,11.5,24.754 M11.5,28.902c-0.773,0-1.403-0.629-1.403-1.402c0-0.774,0.63-1.402,1.403-1.402
		c0.773,0,1.402,0.628,1.402,1.402C12.902,28.273,12.273,28.902,11.5,28.902"/>
</g>
<g>
	<g>
		<g>
			<g>
				<defs>
					<path id="SVGID_3_" d="M17.729,34.199c0.017,0.164,0.021,0.275,0.021,0.275S17.734,34.375,17.729,34.199 M17.885,32.744
						c-0.148,0.639-0.164,1.158-0.154,1.455c-0.039-0.39-0.158-1.104-0.559-1.479c0,0,0.079,0.83-0.248,1.467
						c-0.322,0.638-0.83,1.91,0.369,3.707c0,0-0.098-0.026-0.251-0.088c0.513,0.334,1.114,0.531,1.763,0.531
						c0.594,0,1.151-0.164,1.637-0.449c-0.26,0.134-0.535,0.22-0.826,0.229c0,0,1.179-1,0.854-2.321
						c-0.326-1.322-0.051-1.609-0.051-1.609s-0.721,0.486-0.747,1.263c0,0-1.399-1.236-0.551-4.074
						C19.12,31.375,18.12,31.738,17.885,32.744"/>
				</defs>
				<clipPath id="SVGID_4_">
					<use xlink:href="#SVGID_3_"  overflow="visible"/>
				</clipPath>
				
					<linearGradient id="SVGID_5_" gradientUnits="userSpaceOnUse" x1="-95.2104" y1="-50.8457" x2="-94.3156" y2="-50.8457" gradientTransform="matrix(0 -7.9065 -7.9065 0 -383.5674 -714.4424)">
					<stop  offset="0" style="stop-color:#EE6F0B"/>
					<stop  offset="1" style="stop-color:#FFEB3B"/>
				</linearGradient>
				<rect x="16.094" y="31.375" clip-path="url(#SVGID_4_)" fill="url(#SVGID_5_)" width="4.698" height="6.965"/>
			</g>
		</g>
	</g>
	<g>
		<g>
			<g>
				<defs>
					<path id="SVGID_6_" d="M16.932,31.152c0.129-1.572-0.832-2.768-0.832-2.768c0.151,2.67-2.244,5.018-1.551,6.988
						c0.547,1.549,1.924,2.219,2.493,2.434c0.153,0.063,0.251,0.088,0.251,0.088c-1.199-1.797-0.691-3.068-0.369-3.707
						c0.327-0.637,0.248-1.467,0.248-1.467c0.398,0.375,0.52,1.09,0.559,1.479c-0.01-0.297,0.006-0.815,0.154-1.453
						c0.235-1.008,1.235-1.37,1.235-1.37c-0.849,2.838,0.551,4.073,0.551,4.073c0.026-0.772,0.747-1.262,0.747-1.262
						s-0.273,0.287,0.051,1.609c0.323,1.32-0.854,2.32-0.854,2.32c0.291-0.012,0.566-0.097,0.826-0.229
						c1.027-0.604,1.725-1.758,1.725-3.084c0-0.246-0.023-0.48-0.064-0.711c-0.033-0.104-0.072-0.207-0.117-0.303
						c-0.099-0.203-0.172-0.441-0.234-0.691c-0.307-1.281-0.18-2.967-0.18-2.967c-0.529,0.582-0.744,1.236-0.816,1.791
						c-0.098,0.729,0.047,1.283,0.047,1.283s-0.354-0.365-0.438-1.537c-0.039-0.537-0.023-1.244,0.108-2.164
						c0.425-2.92-1.896-5.09-1.896-5.09C19.544,28.611,16.932,31.152,16.932,31.152"/>
				</defs>
				<clipPath id="SVGID_7_">
					<use xlink:href="#SVGID_6_"  overflow="visible"/>
				</clipPath>
				
					<linearGradient id="SVGID_8_" gradientUnits="userSpaceOnUse" x1="-41.8521" y1="-16.1611" x2="-40.9573" y2="-16.1611" gradientTransform="matrix(0 -15.8134 -15.8134 0 -237.5522 -623.2709)">
					<stop  offset="0" style="stop-color:#F44336"/>
					<stop  offset="1" style="stop-color:#F5A816"/>
				</linearGradient>
				<rect x="13.855" y="24.418" clip-path="url(#SVGID_7_)" fill="url(#SVGID_8_)" width="8.31" height="13.701"/>
			</g>
		</g>
	</g>
	<g>
		<path fill="none" stroke="#F44336" stroke-width="0.5" stroke-linejoin="round" stroke-miterlimit="10" d="M22.098,34.094
			c-0.033-0.104-0.07-0.205-0.115-0.301c-0.1-0.205-0.176-0.443-0.234-0.693c-0.307-1.279-0.18-2.967-0.18-2.967
			c-0.529,0.584-0.744,1.236-0.816,1.793c-0.098,0.727,0.048,1.283,0.048,1.283s-0.354-0.367-0.438-1.539
			c-0.039-0.537-0.022-1.244,0.108-2.162c0.425-2.92-1.896-5.088-1.896-5.088c0.973,4.191-1.643,6.732-1.643,6.732
			c0.131-1.572-0.83-2.767-0.83-2.767c0.15,2.668-2.244,5.017-1.552,6.987c0.548,1.55,1.536,2.015,2.187,2.384
			c0.639,0.36,1.354,0.457,2.004,0.457c0.595,0,1.125,0.047,1.699-0.324c1.006-0.644,1.728-1.758,1.728-3.088
			C22.164,34.559,22.141,34.324,22.098,34.094z"/>
	</g>
</g>
</svg>
