<?xml version="1.0" encoding="utf-8"?>
<!-- Generator: Adobe Illustrator 15.0.0, SVG Export Plug-In . SVG Version: 6.00 Build 0)  -->
<!DOCTYPE svg PUBLIC "-//W3C//DTD SVG 1.1//EN" "http://www.w3.org/Graphics/SVG/1.1/DTD/svg11.dtd">
<svg version="1.1" id="图层_1" xmlns="http://www.w3.org/2000/svg" xmlns:xlink="http://www.w3.org/1999/xlink" x="0px" y="0px"
	 width="16px" height="16px" viewBox="0.5 16.5 16 16" enable-background="new 0.5 16.5 16 16" xml:space="preserve">
<g>
	<polygon fill="#F6F6F6" stroke="#888888" stroke-width="0.5" points="1,18.13 8.418,18.13 10.537,20.779 10.537,30.315 1,30.315 	
		"/>
	<polyline fill="#EEEEEE" stroke="#888888" stroke-width="0.5" points="8.418,18.13 8.418,20.779 10.537,20.779 	"/>
</g>
<g>
	<path fill="#FFFFFF" stroke="#888888" stroke-width="0.5" d="M9.478,24.992c0,2.049-1.66,3.734-3.708,3.734
		c-2.049,0-3.709-1.661-3.709-3.708c0-2.05,1.661-3.71,3.709-3.71C7.818,21.309,9.478,22.943,9.478,24.992z"/>
	<path fill="#C9C9C9" d="M8.684,24.998c0,1.609-1.305,2.934-2.914,2.934c-1.61,0-2.915-1.304-2.915-2.913
		c0-1.61,1.305-2.913,2.915-2.913C7.378,22.104,8.684,23.389,8.684,24.998z"/>
	<path fill="#FFFFFF" stroke="#B7B7B7" stroke-width="0.5" d="M6.564,25.013c0,0.438-0.355,0.8-0.794,0.8s-0.795-0.356-0.795-0.794
		c0-0.439,0.356-0.795,0.795-0.795C6.208,24.224,6.564,24.573,6.564,25.013z"/>
</g>
<g>
	<circle fill="#FFFFFF" stroke="#065493" stroke-width="0.5" stroke-miterlimit="10" cx="11.231" cy="26.102" r="4.768"/>
	<circle fill="#2EA7E0" cx="11.231" cy="26.072" r="3.974"/>
	<circle fill="#FFFFFF" stroke="#1580C3" stroke-width="0.5" stroke-miterlimit="10" cx="11.231" cy="26.072" r="1.059"/>
	<g>
		<path opacity="0.6" fill="#FFFFFF" enable-background="new    " d="M12.554,26.19l2.324,0.151l0.134-0.004
			c0.032-0.541-0.052-1.082-0.244-1.585l-2.298,0.879C12.537,25.808,12.567,25.998,12.554,26.19"/>
		<path opacity="0.6" fill="#FFFFFF" enable-background="new    " d="M9.911,26.016L7.587,25.86l-0.134,0.006
			c-0.033,0.542,0.049,1.082,0.243,1.584l2.299-0.876C9.928,26.396,9.898,26.205,9.911,26.016"/>
		<path opacity="0.6" fill="#FFFFFF" enable-background="new    " d="M12.377,25.436l2.013-1.174l0.107-0.076
			c-0.276-0.469-0.649-0.868-1.086-1.178l-1.417,2.012C12.148,25.128,12.28,25.271,12.377,25.436"/>
		<path opacity="0.6" fill="#FFFFFF" enable-background="new    " d="M10.087,26.769l-2.012,1.174l-0.107,0.079
			c0.275,0.465,0.648,0.867,1.086,1.174l1.415-2.011C10.314,27.076,10.185,26.934,10.087,26.769"/>
	</g>
</g>
<polygon fill="#7BD027" stroke="#2D7E01" stroke-width="0.5" points="7.786,25.837 7.786,25.308 9.907,26.607 7.786,27.955 
	7.786,27.428 5.138,27.428 5.138,25.837 "/>
</svg>
